<svg width="48" height="46" viewBox="0 0 48 46" fill="none" xmlns="http://www.w3.org/2000/svg"><path d="M37 36h10V2H1v34h8" stroke="#404145" stroke-width="1.5" stroke-miterlimit="10" stroke-linecap="round" stroke-linejoin="round"/><path d="M30.002 33h2c1.41 0 1.74 1.03 1.51 2.31 0 0-.57 6.47-.76 7.11-.19.64-.57 1.58-1.51 1.58h-7.57c-2.07 0-2.19-2-3.66-2h-2" stroke="#404145" stroke-width="1.5" stroke-miterlimit="10" stroke-linecap="round"/><path d="M22.912 37.48c1.95 0 3.34-1.3 3.7-2.88.13-.59.3-1.17.58-1.7.17-.33.34-.66.4-.83.09-.28.44-.84.44-2.15 0-1.33-.16-1.97-.95-2.65-.75-.64-1.89-.35-1.89.36v.76c0 1.59-1.18 2.02-2.38 3.21 0 0-1.28 1.4-2.8 1.4h-2" stroke="#404145" stroke-width="1.5" stroke-miterlimit="10" stroke-linecap="round"/><path d="M18 31h-5v13h5V31z" fill="#A6EACA" stroke="#404145" stroke-width="1.5" stroke-miterlimit="10"/><path d="M25.759 23.11l-3.7-3.42 6.31-.74 2.66-5.78 2.66 5.78 6.31.74-4.67 4.31 1.24 6.24-4.88-2.74" fill="#A6EACA"/><path d="M25.759 23.11l-3.7-3.42 6.31-.74 2.66-5.78 2.66 5.78 6.31.74-4.67 4.31 1.24 6.24-4.88-2.74" stroke="#404145" stroke-width="1.5" stroke-miterlimit="10" stroke-linecap="round" stroke-linejoin="round"/><path d="M24.26 16.3c-.46-1.69-1.84-3.08-3.69-3.28-1.98-.21-4.11.88-4.86 2.52-.75-1.64-2.88-2.73-4.86-2.52-2.61.28-4.29 2.92-3.76 5.46.72 3.45 4.67 5 8.62 8.91 1.59-1.57 3.18-2.76 4.56-3.85" fill="#A6EACA"/><path d="M24.26 16.3c-.46-1.69-1.84-3.08-3.69-3.28-1.98-.21-4.11.88-4.86 2.52-.75-1.64-2.88-2.73-4.86-2.52-2.61.28-4.29 2.92-3.76 5.46.72 3.45 4.67 5 8.62 8.91 1.59-1.57 3.18-2.76 4.56-3.85" stroke="#404145" stroke-width="1.5" stroke-linecap="round" stroke-linejoin="round"/><path d="M1 8h46" stroke="#404145" stroke-width="1.5" stroke-miterlimit="10" stroke-linecap="round"/><path d="M4 5h2m1 0h2" stroke="#404145" stroke-width="1.5" stroke-miterlimit="10"/></svg>